<svg width="230" height="150" viewBox="0 0 230 150" fill="none" xmlns="http://www.w3.org/2000/svg">
<g clip-path="url(#clip0_38_2)">
<path d="M92.0377 14.4686C89.2355 18.6177 94.512 25.6087 89.1941 27.0604L89.6322 26.6839C92.8422 23.2902 86.1329 16.1074 89.3429 12.7138C89.8416 12.216 90.2698 11.669 90.6183 11.0843" fill="#2F2E41"/>
<path d="M118.281 75.3391C118.372 74.9239 118.357 74.4965 118.236 74.0868C118.115 73.6772 117.891 73.2954 117.58 72.9683C117.268 72.6412 116.877 72.3767 116.434 72.1935C115.991 72.0104 115.506 71.9129 115.015 71.9081L108.088 54.6117L104.254 58.812L111.578 74.9736C111.623 75.6841 111.97 76.3556 112.553 76.8609C113.136 77.3662 113.914 77.6702 114.74 77.7153C115.566 77.7603 116.383 77.5433 117.036 77.1054C117.688 76.6674 118.131 76.039 118.281 75.3391L118.281 75.3391Z" fill="#FFB8B8"/>
<path d="M87.8331 33.5788C87.8331 33.5788 87.6176 27.3177 94.1318 30.9045C100.646 34.4912 114.829 68.09 114.829 68.09L107.771 71.3721L91.7481 40.6254L87.8331 33.5788Z" fill="#6A040F"/>
<path d="M107.052 140.89L103.799 142.084L96.8893 131.869L101.69 130.106L107.052 140.89Z" fill="#FFB6B6"/>
<path d="M111.177 145.103L108.844 145.96L107.487 144.22L107.361 146.504L101.174 148.777C100.878 148.885 100.548 148.91 100.234 148.847C99.9205 148.783 99.6383 148.636 99.4291 148.425C99.2198 148.214 99.0945 147.951 99.0714 147.674C99.0483 147.398 99.1286 147.122 99.3007 146.888L102.783 142.14L101.832 140.227L107.161 138.585L111.177 145.103Z" fill="#2F2E41"/>
<path d="M56.0599 144.354L52.5269 144.206L51.5113 132.422L56.7262 132.641L56.0599 144.354Z" fill="#FFB6B6"/>
<path d="M57.6256 149.694L55.0919 149.588L54.7565 147.513L53.4813 149.52L46.7612 149.238C46.439 149.224 46.1304 149.123 45.8802 148.948C45.6301 148.773 45.4516 148.534 45.3708 148.265C45.2899 147.997 45.311 147.713 45.4309 147.456C45.5509 147.199 45.7633 146.981 46.0374 146.835L51.585 143.875L51.7032 141.796L57.3313 142.323L57.6256 149.694Z" fill="#2F2E41"/>
<path d="M160.161 142.477C160.395 142.484 160.626 142.43 160.823 142.32C161.02 142.211 161.172 142.052 161.261 141.866C161.349 141.68 161.369 141.474 161.317 141.278C161.265 141.082 161.144 140.904 160.97 140.769C160.94 140.671 160.919 140.6 160.889 140.502C161.107 140.011 161.491 139.588 161.992 139.286C162.492 138.984 163.086 138.818 163.697 138.808C164.308 138.798 164.908 138.945 165.422 139.23C165.935 139.516 166.337 139.926 166.577 140.409C167.961 143.121 169.744 145.926 168.906 148.932C174.544 138.403 172.443 125.379 163.839 116.484C161.476 115.391 159.549 113.429 159.027 111.137C160.194 111.466 161.636 110.641 160.749 109.595C160.366 109.195 159.978 108.799 159.595 108.399C163.97 104.318 169.306 110.633 164.502 116.132C166.112 117.834 167.511 119.676 168.676 121.628C168.389 119.548 168.68 117.438 169.527 115.474C170.386 113.642 172.018 112.093 173.453 110.504C175.197 108.568 178.841 109.424 179.106 111.861C177.482 112.335 177.292 114.359 179.159 114.621C178.721 119.161 175.319 123.359 170.592 125.387C172.393 129.602 173.128 134.099 172.747 138.577C173.528 133.34 180.045 132.018 184.587 129.902C184.876 129.739 185.214 129.652 185.559 129.652C185.904 129.652 186.242 129.737 186.531 129.899C186.821 130.061 187.049 130.292 187.189 130.563C187.328 130.835 187.372 131.135 187.317 131.428C186.689 131.653 186.089 131.931 185.525 132.259C185.261 132.415 185.06 132.637 184.948 132.895C184.837 133.153 184.821 133.434 184.903 133.7C184.985 133.966 185.161 134.204 185.406 134.381C185.651 134.558 185.954 134.665 186.274 134.689C184.027 139.602 178.114 142.938 172.003 142.97C171.44 145.168 170.613 147.309 169.535 149.36L160.466 149.435C160.432 149.348 160.402 149.259 160.372 149.173C161.212 149.211 162.054 149.161 162.88 149.024C160.634 146.782 158.903 145.643 160.161 142.477L160.161 142.477Z" fill="#F2F2F2"/>
<path d="M64.9852 67.7567C64.9852 67.7567 57.8003 84.586 57.6843 86.4693C57.5682 88.3526 55.5191 112.168 53.8006 113.552C52.0821 114.936 46.8283 136.389 50.9163 138.067C55.0043 139.745 67.9018 136.965 67.9018 136.965L72.3886 111.624L73.9127 92.2089C73.9127 92.2089 78.5529 137.927 86.969 137.793C95.385 137.658 105.64 134.904 105.64 134.904L93.8608 107.216C93.8608 107.216 94.0274 74.4382 91.297 67.8271C88.5666 61.2159 64.9852 67.7567 64.9852 67.7567Z" fill="#2F2E41"/>
<path d="M86.3051 24.398L76.6828 25.1555L75.1327 29.2453C75.1327 29.2453 67.0802 33.0462 68.8633 34.773C70.6463 36.4998 68.4646 48.1369 68.4646 48.1369L68.9573 57.5829C68.9573 57.5829 68.428 64.1273 66.8439 65.6351C65.2597 67.143 61.1153 70.8404 64.0437 69.0714C74.3115 62.869 92.2584 68.1025 92.2584 68.1025L89.6946 54.6055C89.6946 54.6055 95.518 32.5076 93.2199 30.6413C90.9217 28.775 88.7533 28.5392 88.7533 28.5392L86.3051 24.398Z" fill="#6A040F"/>
<path d="M35.7446 67.2106C36.228 67.1333 36.6858 66.9657 37.0858 66.7198C37.4857 66.474 37.8181 66.1557 38.0594 65.7875C38.3008 65.4192 38.4453 65.01 38.4827 64.5886C38.5201 64.1672 38.4496 63.7438 38.2761 63.3484L54.5051 51.5144L48.5587 49.9715L33.704 61.7107C32.9504 62.0053 32.3487 62.5273 32.0129 63.1777C31.6771 63.8281 31.6305 64.5618 31.8821 65.2397C32.1336 65.9176 32.6657 66.4927 33.3776 66.856C34.0895 67.2192 34.9317 67.3454 35.7446 67.2106V67.2106Z" fill="#FFB8B8"/>
<path d="M76.9603 36.2562C76.9603 36.2562 80.1579 30.6275 72.5029 31.589C64.848 32.5505 35.8191 58.1431 35.8191 58.1431L40.6771 63.633L70.0153 41.2906L76.9603 36.2562Z" fill="#6A040F"/>
<path d="M64.4944 26.7087L34.144 60.1279C33.619 60.7079 33.3829 61.4432 33.4875 62.1726C33.5921 62.902 34.0288 63.566 34.702 64.0191C41.7501 78.7278 62.8363 89.635 87.6411 99.5351C88.3157 99.9868 89.1714 100.19 90.0201 100.1C90.8689 100.01 91.6415 99.6345 92.1684 99.0555L122.519 65.6363C123.044 65.0564 123.281 64.321 123.176 63.5915C123.072 62.862 122.634 62.1979 121.961 61.7451C101.145 51.6427 83.2536 39.9382 69.0217 26.2291C68.3469 25.7778 67.4914 25.5749 66.6428 25.6648C65.7941 25.7547 65.0216 26.1301 64.4944 26.7087V26.7087Z" fill="#E6E6E6"/>
<path d="M120.389 64.8759L111.15 75.0484C105.507 81.225 97.2491 85.2311 88.1805 86.1917C79.1118 87.1523 69.9694 84.9893 62.7502 80.1751L36.8602 62.8059C36.4766 62.5485 36.2276 62.1709 36.1676 61.7558C36.1076 61.3408 36.2416 60.9222 36.5402 60.592L65.8679 28.2989C66.1681 27.9697 66.6079 27.7564 67.091 27.7056C67.574 27.6548 68.0607 27.7708 68.4443 28.0281C81.5409 42.5634 99.0717 53.8747 120.071 62.6639C120.454 62.9214 120.703 63.2988 120.762 63.7135C120.822 64.1282 120.687 64.5463 120.389 64.8759Z" fill="white"/>
<path d="M63.889 44.9524L57.8724 51.5773C57.7128 51.7527 57.4786 51.8666 57.2213 51.8937C56.9641 51.9209 56.7048 51.8591 56.5005 51.722C56.2962 51.585 56.1636 51.3838 56.1318 51.1627C56.0999 50.9417 56.1715 50.7188 56.3308 50.543L62.3474 43.9182C62.4263 43.831 62.5245 43.7582 62.6362 43.7037C62.748 43.6492 62.8711 43.6142 62.9986 43.6006C63.1262 43.5871 63.2555 43.5952 63.3794 43.6247C63.5032 43.6541 63.6191 43.7042 63.7203 43.7722C63.8216 43.8401 63.9063 43.9246 63.9696 44.0207C64.0329 44.1168 64.0735 44.2227 64.0892 44.3323C64.1049 44.4419 64.0952 44.553 64.0609 44.6594C64.0265 44.7659 63.9681 44.8654 63.8889 44.9524H63.889Z" fill="#CCCCCC"/>
<path d="M75.1741 40.0382L61.9614 54.587C61.8824 54.674 61.7842 54.7468 61.6725 54.8012C61.5607 54.8556 61.4376 54.8905 61.3102 54.904C61.1827 54.9175 61.0534 54.9093 60.9297 54.8799C60.8059 54.8504 60.6901 54.8003 60.5889 54.7324C60.4877 54.6645 60.403 54.5801 60.3398 54.4841C60.2765 54.388 60.2358 54.2822 60.2201 54.1727C60.2044 54.0632 60.214 53.952 60.2482 53.8457C60.2825 53.7393 60.3408 53.6398 60.4198 53.5528L73.6325 39.004C73.7115 38.9168 73.8096 38.8438 73.9214 38.7893C74.0332 38.7347 74.1564 38.6996 74.2839 38.686C74.4115 38.6724 74.5409 38.6805 74.6648 38.71C74.7887 38.7394 74.9047 38.7895 75.006 38.8575C75.1073 38.9255 75.1921 39.01 75.2554 39.1061C75.3187 39.2023 75.3593 39.3082 75.3749 39.4179C75.3905 39.5276 75.3808 39.6388 75.3464 39.7453C75.3119 39.8517 75.2534 39.9513 75.1741 40.0382H75.1741Z" fill="#CCCCCC"/>
<path d="M52.6394 64.3054C56.1963 64.3054 59.0797 61.8271 59.0797 58.77C59.0797 55.7129 56.1963 53.2346 52.6394 53.2346C49.0825 53.2346 46.199 55.7129 46.199 58.77C46.199 61.8271 49.0825 64.3054 52.6394 64.3054Z" fill="#6A040F"/>
<path d="M75.8757 51.5366L59.6477 69.4055C59.4784 69.5537 59.2515 69.6432 59.0103 69.6568C58.7691 69.6705 58.5305 69.6074 58.34 69.4796C58.1495 69.3518 58.0203 69.1681 57.9772 68.9637C57.9341 68.7593 57.98 68.5484 58.1061 68.3712L74.3341 50.5024C74.5034 50.3542 74.7303 50.2647 74.9715 50.251C75.2127 50.2374 75.4513 50.3005 75.6418 50.4283C75.8323 50.5561 75.9615 50.7397 76.0046 50.9441C76.0477 51.1485 76.0018 51.3595 75.8757 51.5366Z" fill="#CCCCCC"/>
<path d="M86.4031 47.4569L63.7529 72.3974C63.5835 72.5456 63.3566 72.6351 63.1154 72.6488C62.8743 72.6624 62.6357 72.5994 62.4451 72.4715C62.2546 72.3437 62.1255 72.1601 62.0823 71.9557C62.0392 71.7513 62.0851 71.5404 62.2113 71.3632L84.8615 46.4227C85.0309 46.2744 85.2577 46.185 85.4989 46.1713C85.7401 46.1576 85.9787 46.2207 86.1692 46.3485C86.3598 46.4764 86.4889 46.66 86.532 46.8644C86.5752 47.0688 86.5293 47.2797 86.4031 47.4569V47.4569Z" fill="#CCCCCC"/>
<path d="M86.3244 58.5466L70.0965 76.4154C69.9271 76.5636 69.7002 76.6531 69.4591 76.6668C69.2179 76.6804 68.9793 76.6173 68.7888 76.4895C68.5982 76.3617 68.4691 76.1781 68.426 75.9737C68.3828 75.7693 68.4287 75.5584 68.5549 75.3812L84.7828 57.5123C84.9522 57.3641 85.1791 57.2746 85.4203 57.261C85.6614 57.2473 85.9 57.3104 86.0906 57.4382C86.2811 57.566 86.4102 57.7497 86.4534 57.9541C86.4965 58.1585 86.4506 58.3694 86.3244 58.5466Z" fill="#CCCCCC"/>
<path d="M107.797 60.7502L91.5688 78.619C91.3994 78.7672 91.1725 78.8567 90.9313 78.8704C90.6902 78.884 90.4516 78.8209 90.261 78.6931C90.0705 78.5653 89.9414 78.3817 89.8982 78.1773C89.8551 77.9729 89.901 77.762 90.0272 77.5848L106.255 59.7159C106.424 59.5677 106.651 59.4782 106.893 59.4646C107.134 59.4509 107.372 59.514 107.563 59.6418C107.753 59.7696 107.883 59.9533 107.926 60.1577C107.969 60.3621 107.923 60.573 107.797 60.7502Z" fill="#6A040F"/>
<path d="M96.8519 54.4668L74.2017 79.4073C74.0323 79.5555 73.8054 79.645 73.5642 79.6587C73.323 79.6724 73.0844 79.6093 72.8939 79.4814C72.7034 79.3536 72.5742 79.17 72.5311 78.9656C72.488 78.7612 72.5339 78.5503 72.6601 78.3731L95.3103 53.4326C95.4796 53.2844 95.7065 53.1949 95.9477 53.1812C96.1889 53.1675 96.4275 53.2306 96.618 53.3585C96.8085 53.4863 96.9377 53.6699 96.9808 53.8743C97.0239 54.0787 96.978 54.2896 96.8519 54.4668V54.4668Z" fill="#CCCCCC"/>
<path d="M70.1731 13.8396C70.1725 15.1843 70.556 16.5085 71.2898 17.696C72.0237 18.8836 73.0855 19.8981 74.3821 20.6506C75.6786 21.4031 77.1703 21.8705 78.7261 22.0119C80.2819 22.1532 81.8543 21.9641 83.3052 21.4613C84.7562 20.9584 86.0413 20.157 87.0478 19.1276C88.0544 18.0982 88.7515 16.8721 89.078 15.5571C89.4045 14.242 89.3504 12.8782 88.9205 11.5853C88.4906 10.2924 87.698 9.11001 86.6123 8.14186L86.5664 8.10248C86.4899 8.03345 86.4135 7.96446 86.3332 7.89871C86.3327 7.89872 86.3322 7.89864 86.3317 7.89848C86.3312 7.89832 86.3308 7.89808 86.3304 7.89777C86.3301 7.89746 86.3298 7.89709 86.3296 7.89669C86.3294 7.89629 86.3294 7.89586 86.3294 7.89543C86.23 7.81657 86.1306 7.73771 86.0273 7.66214C84.6462 6.62145 82.9455 5.94493 81.1286 5.71358C79.3117 5.48222 77.4558 5.70582 75.7829 6.35763C74.1101 7.00943 72.6913 8.06181 71.6964 9.38876C70.7015 10.7157 70.1726 12.261 70.1731 13.8396V13.8396Z" fill="#2F2E41"/>
<path d="M82.0855 22.6287C86.5118 22.6287 90.1 19.5446 90.1 15.7403C90.1 11.9359 86.5118 8.85188 82.0855 8.85188C77.6592 8.85188 74.071 11.9359 74.071 15.7403C74.071 19.5446 77.6592 22.6287 82.0855 22.6287Z" fill="#FFB8B8"/>
<path d="M73.5415 17.576C72.7582 14.5417 73.8905 11.1423 76.3592 9.11667C77.6008 8.11797 79.1451 7.44064 80.8146 7.16251C82.4841 6.88439 84.211 7.01675 85.7968 7.5444C85.9984 7.61433 86.1999 7.69086 86.3977 7.77075L86.4897 7.80801V7.81958C86.5076 7.8302 86.5254 7.84137 86.5433 7.85266C86.5806 7.88276 86.6261 7.90435 86.6756 7.91547C87.3715 7.89982 88.0634 8.01073 88.7059 8.24094C89.3485 8.47115 89.9272 8.81545 90.4041 9.25129C91.6463 10.4097 92.2312 12.2818 92.0519 14.5226L92.0462 14.5927L91.9767 14.63C91.0363 15.1422 90.0604 15.6046 89.0545 16.0148C85.5361 17.4367 82.3241 17.7001 79.237 16.8192L79.1803 16.803L77.8846 14.9366C77.6186 16.2239 77.7607 20.4937 76.2343 20.7251L73.5747 17.7047L73.5415 17.576Z" fill="#2F2E41"/>
<path d="M56.6704 23.5737C59.3978 22.3637 55.8901 17.9725 56.595 15.4051C57.2998 12.8377 62.3755 12.0119 62.6988 9.38866C63.0222 6.76541 63.7828 4.0598 65.7969 2.06926C67.0838 0.797304 68.9801 -0.141699 70.9326 0.0176214C71.5932 0.0715253 72.2325 0.247165 72.807 0.532578C73.3815 0.81799 73.8777 1.20647 74.2617 1.67156C74.6458 2.13665 74.9087 2.66742 75.0326 3.22772C75.1565 3.78802 75.1385 4.3647 74.9797 4.91846C75.5356 4.24147 76.9742 4.38819 77.3302 5.15824C77.6468 5.84282 76.9475 6.67203 76.1244 6.7326C75.0475 7.87572 73.8142 9.08887 72.127 9.31947C71.8582 9.37253 71.5788 9.37239 71.3101 9.31908C71.0413 9.26576 70.7902 9.16066 70.5756 9.0117C70.1787 8.68407 70.1478 8.02906 70.6187 7.78422C68.4983 8.50815 67.2552 10.4786 66.9406 12.4208C66.626 14.363 67.0612 16.3281 67.348 18.2735C67.6349 20.2189 67.7584 22.2653 66.871 24.0718C65.8224 26.2063 63.4083 27.736 60.7738 28.2266C58.1392 28.7172 55.3334 28.2377 52.9487 27.1575C50.564 26.0771 48.5753 24.4279 46.9508 22.579C49.7492 24.2868 53.6207 24.9266 56.6704 23.5737Z" fill="#2F2E41"/>
<path d="M78.257 15.295C75.4547 19.4441 80.7313 26.4351 75.4134 27.8868L75.8515 27.5102C79.0615 24.1166 72.3522 16.9338 75.5622 13.5401C76.0609 13.0423 76.4891 12.4953 76.8376 11.9107" fill="#2F2E41"/>
<path d="M73.9158 17.5132C73.9158 17.5132 76.29 9.89655 86.467 8.13857C86.4784 8.13532 86.5167 8.12217 86.5664 8.10247C86.597 8.08603 86.6352 8.06958 86.6734 8.05317C86.5587 7.99729 86.4479 7.94803 86.3332 7.8987C86.3327 7.8987 86.3322 7.89862 86.3317 7.89846C86.3312 7.8983 86.3308 7.89806 86.3305 7.89775C86.3301 7.89744 86.3298 7.89708 86.3296 7.89667C86.3294 7.89627 86.3294 7.89584 86.3294 7.89541C86.23 7.81655 86.1306 7.73769 86.0273 7.66212L85.7368 7.67199C85.7368 7.67199 75.5254 6.28208 73.9158 17.5132Z" fill="#FD6584"/>
<path d="M1.69562e-05 149.672C-0.000132836 149.715 0.00963271 149.758 0.0287466 149.798C0.0478606 149.838 0.0759496 149.874 0.111395 149.904C0.146841 149.935 0.188942 149.959 0.235283 149.975C0.281623 149.992 0.331284 150 0.38141 150H229.619C229.72 150 229.817 149.965 229.888 149.904C229.96 149.843 230 149.759 230 149.672C230 149.585 229.96 149.502 229.888 149.44C229.817 149.379 229.72 149.344 229.619 149.344H0.381391C0.331267 149.344 0.28161 149.353 0.235273 149.369C0.188936 149.386 0.146834 149.41 0.11139 149.44C0.0759472 149.471 0.0478601 149.507 0.0287466 149.547C0.00963316 149.586 -0.000130697 149.629 1.69562e-05 149.672V149.672Z" fill="#CCCCCC"/>
</g>
<defs>
<clipPath id="clip0_38_2">
<rect width="230" height="150" fill="white"/>
</clipPath>
</defs>
</svg>
