<svg width="550" height="350" viewBox="0 0 550 350" fill="none" xmlns="http://www.w3.org/2000/svg">
<g clip-path="url(#clip0_10_314)">
<path d="M350.488 262.384V346.755H109.716C82.283 346.755 59.9634 327.83 59.9634 304.57C59.9634 281.309 82.2829 262.384 109.716 262.384H350.488Z" fill="#F2F2F2"/>
<path d="M356.402 346.106C356.401 346.966 356.012 347.792 355.319 348.4C354.625 349.009 353.686 349.351 352.705 349.351H105.427C91.997 349.351 79.1169 344.667 69.6204 336.33C60.1238 327.993 54.7887 316.685 54.7887 304.894C54.7887 293.103 60.1238 281.796 69.6204 273.458C79.1169 265.121 91.997 260.437 105.427 260.437H352.705C353.686 260.437 354.626 260.779 355.319 261.388C356.012 261.996 356.402 262.822 356.402 263.682C356.402 264.543 356.012 265.368 355.319 265.977C354.626 266.585 353.686 266.927 352.705 266.927H105.427C93.9576 266.927 82.9578 270.927 74.8476 278.047C66.7374 285.168 62.1812 294.825 62.1812 304.894C62.1812 314.964 66.7374 324.621 74.8476 331.741C82.9578 338.861 93.9576 342.861 105.427 342.861H352.705C353.686 342.861 354.625 343.203 355.319 343.812C356.012 344.42 356.401 345.245 356.402 346.106Z" fill="#6A040F"/>
<path d="M350.488 281.854H91.7511C91.555 281.854 91.367 281.786 91.2284 281.664C91.0897 281.542 91.0118 281.377 91.0118 281.205C91.0118 281.033 91.0897 280.868 91.2284 280.746C91.367 280.625 91.555 280.556 91.7511 280.556H350.488C350.684 280.556 350.872 280.625 351.01 280.746C351.149 280.868 351.227 281.033 351.227 281.205C351.227 281.377 351.149 281.542 351.01 281.664C350.872 281.786 350.684 281.854 350.488 281.854Z" fill="#CCCCCC"/>
<path d="M350.488 297.431H91.7511C91.555 297.431 91.367 297.362 91.2284 297.24C91.0897 297.119 91.0118 296.954 91.0118 296.782C91.0118 296.609 91.0897 296.444 91.2284 296.323C91.367 296.201 91.555 296.133 91.7511 296.133H350.488C350.684 296.133 350.872 296.201 351.01 296.323C351.149 296.444 351.227 296.609 351.227 296.782C351.227 296.954 351.149 297.119 351.01 297.24C350.872 297.362 350.684 297.431 350.488 297.431Z" fill="#CCCCCC"/>
<path d="M350.488 313.007H91.7511C91.555 313.007 91.367 312.938 91.2284 312.817C91.0897 312.695 91.0118 312.53 91.0118 312.358C91.0118 312.186 91.0897 312.02 91.2284 311.899C91.367 311.777 91.555 311.709 91.7511 311.709H350.488C350.684 311.709 350.872 311.777 351.01 311.899C351.149 312.02 351.227 312.186 351.227 312.358C351.227 312.53 351.149 312.695 351.01 312.817C350.872 312.938 350.684 313.007 350.488 313.007Z" fill="#CCCCCC"/>
<path d="M350.488 328.583H91.7511C91.555 328.583 91.367 328.514 91.2284 328.393C91.0897 328.271 91.0118 328.106 91.0118 327.934C91.0118 327.762 91.0897 327.597 91.2284 327.475C91.367 327.353 91.555 327.285 91.7511 327.285H350.488C350.684 327.285 350.872 327.353 351.01 327.475C351.149 327.597 351.227 327.762 351.227 327.934C351.227 328.106 351.149 328.271 351.01 328.393C350.872 328.514 350.684 328.583 350.488 328.583Z" fill="#CCCCCC"/>
<path d="M536.569 278.266L476.273 343.964L288.788 211.339C267.427 196.228 263.572 169.198 280.195 151.085C296.819 132.973 327.723 130.531 349.085 145.641L536.569 278.266Z" fill="#F2F2F2"/>
<path d="M481.837 346.792C481.222 347.462 480.329 347.89 479.354 347.982C478.38 348.074 477.403 347.823 476.64 347.283L284.089 211.075C273.631 203.677 266.949 192.935 265.513 181.212C264.076 169.489 268.003 157.745 276.43 148.564C284.856 139.383 297.092 133.516 310.445 132.255C323.798 130.994 337.175 134.442 347.632 141.839L540.183 278.048C540.561 278.315 540.876 278.645 541.109 279.019C541.342 279.393 541.489 279.804 541.541 280.228C541.593 280.652 541.549 281.08 541.412 281.489C541.276 281.899 541.049 282.28 540.744 282.612C540.439 282.944 540.063 283.22 539.637 283.424C539.211 283.628 538.743 283.757 538.26 283.802C537.777 283.848 537.289 283.809 536.823 283.689C536.357 283.569 535.923 283.369 535.545 283.101L342.994 146.893C338.572 143.762 333.491 141.427 328.041 140.021C322.591 138.615 316.879 138.165 311.231 138.698C305.582 139.23 300.109 140.734 295.123 143.124C290.138 145.514 285.737 148.743 282.173 152.626C278.609 156.51 275.951 160.972 274.351 165.757C272.752 170.542 272.242 175.558 272.851 180.516C273.459 185.474 275.175 190.279 277.899 194.655C280.623 199.031 284.303 202.894 288.727 206.021L481.278 342.23C482.041 342.77 482.529 343.554 482.633 344.409C482.738 345.265 482.452 346.122 481.837 346.792V346.792Z" fill="#CCCCCC"/>
<path d="M518.415 295.924L316.942 153.404C316.867 153.351 316.804 153.285 316.757 153.21C316.711 153.135 316.681 153.053 316.671 152.968C316.661 152.884 316.669 152.798 316.697 152.716C316.724 152.634 316.769 152.558 316.83 152.492C316.891 152.425 316.966 152.37 317.052 152.329C317.137 152.289 317.23 152.263 317.327 152.254C317.423 152.245 317.521 152.252 317.614 152.276C317.707 152.3 317.794 152.34 317.87 152.394L519.343 294.914C519.419 294.967 519.482 295.033 519.528 295.108C519.575 295.183 519.604 295.265 519.615 295.35C519.625 295.435 519.616 295.52 519.589 295.602C519.562 295.684 519.516 295.76 519.455 295.827C519.394 295.893 519.319 295.948 519.234 295.989C519.149 296.03 519.055 296.056 518.958 296.065C518.862 296.074 518.764 296.066 518.671 296.042C518.578 296.018 518.491 295.978 518.415 295.924V295.924Z" fill="#CCCCCC"/>
<path d="M511.523 305.556L310.05 163.036C309.897 162.928 309.8 162.771 309.779 162.6C309.758 162.429 309.816 162.258 309.939 162.124C310.062 161.99 310.24 161.904 310.435 161.886C310.63 161.867 310.825 161.917 310.977 162.025L512.45 304.545C512.526 304.599 512.589 304.665 512.636 304.739C512.682 304.814 512.712 304.896 512.722 304.981C512.733 305.066 512.724 305.152 512.697 305.234C512.669 305.315 512.624 305.392 512.563 305.458C512.502 305.525 512.427 305.58 512.342 305.621C512.256 305.662 512.163 305.687 512.066 305.696C511.969 305.705 511.872 305.698 511.779 305.674C511.685 305.649 511.598 305.609 511.523 305.556V305.556Z" fill="#CCCCCC"/>
<path d="M500.391 317.685L298.918 175.165C298.765 175.057 298.668 174.9 298.647 174.729C298.626 174.558 298.683 174.386 298.806 174.252C298.929 174.118 299.108 174.032 299.303 174.014C299.498 173.996 299.693 174.046 299.846 174.154L501.319 316.674C501.394 316.727 501.457 316.793 501.504 316.868C501.55 316.943 501.58 317.025 501.59 317.11C501.6 317.195 501.592 317.28 501.564 317.362C501.537 317.444 501.492 317.52 501.431 317.587C501.37 317.653 501.294 317.708 501.209 317.749C501.124 317.79 501.031 317.815 500.934 317.825C500.838 317.834 500.74 317.826 500.647 317.802C500.554 317.778 500.467 317.738 500.391 317.685V317.685Z" fill="#CCCCCC"/>
<path d="M489.26 329.814L287.786 187.293C287.711 187.24 287.648 187.174 287.601 187.099C287.555 187.024 287.526 186.942 287.515 186.858C287.505 186.773 287.514 186.687 287.541 186.605C287.568 186.524 287.614 186.447 287.675 186.381C287.736 186.315 287.811 186.259 287.896 186.219C287.981 186.178 288.075 186.152 288.171 186.143C288.268 186.134 288.365 186.141 288.458 186.165C288.552 186.189 288.638 186.229 288.714 186.283L490.187 328.803C490.263 328.856 490.326 328.922 490.372 328.997C490.419 329.072 490.449 329.154 490.459 329.239C490.469 329.324 490.461 329.409 490.433 329.491C490.406 329.573 490.361 329.649 490.3 329.716C490.239 329.782 490.163 329.838 490.078 329.878C489.993 329.919 489.899 329.945 489.803 329.954C489.706 329.963 489.608 329.955 489.515 329.931C489.422 329.907 489.335 329.867 489.26 329.814V329.814Z" fill="#CCCCCC"/>
<path d="M549.261 350H0.739247C0.543187 350 0.355156 349.932 0.21652 349.81C0.0778842 349.688 0 349.523 0 349.351C0 349.179 0.0778842 349.014 0.21652 348.892C0.355156 348.77 0.543187 348.702 0.739247 348.702H549.261C549.457 348.702 549.645 348.77 549.783 348.892C549.922 349.014 550 349.179 550 349.351C550 349.523 549.922 349.688 549.783 349.81C549.645 349.932 549.457 350 549.261 350Z" fill="#CCCCCC"/>
<path d="M249.925 253.516L241.474 253.516L237.455 224.897L249.928 224.898L249.925 253.516Z" fill="#FFB8B8"/>
<path d="M235.437 251.396H251.736V260.405H225.175C225.175 259.222 225.44 258.05 225.956 256.957C226.472 255.864 227.228 254.871 228.181 254.034C229.134 253.198 230.265 252.534 231.51 252.081C232.755 251.629 234.09 251.396 235.437 251.396V251.396Z" fill="#2F2E41"/>
<path d="M163.585 253.516L155.134 253.516L151.115 224.897L163.588 224.898L163.585 253.516Z" fill="#FFB8B8"/>
<path d="M149.097 251.396H165.396V260.405H138.835C138.835 259.222 139.1 258.05 139.616 256.957C140.132 255.864 140.888 254.871 141.841 254.034C142.794 253.198 143.925 252.534 145.17 252.081C146.415 251.629 147.75 251.396 149.097 251.396V251.396Z" fill="#2F2E41"/>
<path d="M191.813 41.2334V37.9883C191.813 32.4372 194.325 27.1134 198.796 23.1882C203.267 19.263 209.331 17.0578 215.654 17.0578H215.654C221.977 17.0578 228.041 19.263 232.512 23.1882C236.983 27.1134 239.495 32.4372 239.495 37.9883V41.2334C239.495 45.2353 237.684 49.0734 234.461 51.9032C231.237 54.733 226.866 56.3228 222.307 56.3228H209.001C206.744 56.3228 204.509 55.9325 202.423 55.1742C200.338 54.4159 198.443 53.3044 196.847 51.9032C195.251 50.502 193.985 48.8386 193.121 47.0078C192.258 45.1771 191.813 43.2149 191.813 41.2334V41.2334Z" fill="#2F2E41"/>
<path d="M215.654 57.4393C225.681 57.4393 233.811 50.3026 233.811 41.4991C233.811 32.6955 225.681 25.5588 215.654 25.5588C205.626 25.5588 197.497 32.6955 197.497 41.4991C197.497 50.3026 205.626 57.4393 215.654 57.4393Z" fill="#FFB8B8"/>
<path d="M116.893 96.2837C117.63 95.6729 118.51 95.2113 119.472 94.9315C120.434 94.6517 121.455 94.5605 122.461 94.6643C123.467 94.7681 124.436 95.0644 125.298 95.5323C126.16 96.0001 126.894 96.6283 127.45 97.3724L143.014 94.7876L147.111 102.708L125.072 106.088C123.586 106.824 121.844 107.056 120.177 106.741C118.509 106.425 117.031 105.583 116.022 104.375C115.014 103.166 114.546 101.675 114.707 100.184C114.867 98.6928 115.645 97.305 116.893 96.2837V96.2837Z" fill="#FFB8B8"/>
<path d="M201.499 67.478L201.702 67.7488L176.179 82.51L133.112 94.5836C132.541 94.7447 132.051 95.0745 131.726 95.5168C131.401 95.9592 131.26 96.4868 131.329 97.0098L132.268 104.114C132.31 104.429 132.426 104.732 132.609 105.005C132.792 105.278 133.038 105.514 133.331 105.698C133.624 105.883 133.958 106.011 134.311 106.076C134.664 106.14 135.028 106.14 135.381 106.073L175.913 98.4456C177.875 98.0786 179.73 97.3617 181.363 96.3393L210.036 78.4287C211.076 77.7759 211.905 76.898 212.444 75.8805C212.983 74.8629 213.212 73.7403 213.111 72.6218C213.005 71.5017 212.57 70.425 211.847 69.4975C211.124 68.57 210.139 67.8238 208.987 67.3321C207.836 66.8404 206.559 66.6202 205.282 66.6933C204.005 66.7664 202.771 67.1301 201.702 67.7488L201.499 67.478Z" fill="#CCCCCC"/>
<path d="M241.625 245.395C240.977 245.395 240.342 245.229 239.799 244.918C239.256 244.607 238.827 244.163 238.567 243.642L199.823 159.595C199.732 159.413 199.58 159.259 199.387 159.155C199.195 159.05 198.97 159.001 198.744 159.012C198.518 159.023 198.301 159.095 198.123 159.217C197.944 159.34 197.813 159.507 197.746 159.698L166.137 241.52C166.004 241.901 165.783 242.254 165.489 242.557C165.194 242.86 164.832 243.107 164.425 243.283C164.018 243.459 163.574 243.559 163.121 243.579C162.667 243.598 162.214 243.536 161.79 243.397L151.19 239.907C150.615 239.719 150.11 239.395 149.732 238.971C149.354 238.546 149.117 238.038 149.048 237.503C144.28 201.033 185.863 108.98 186.284 108.055L186.4 107.798L224.306 115.16L224.385 115.235C239.509 129.72 251.94 221.077 254.278 239.243C254.365 239.9 254.195 240.562 253.796 241.122C253.397 241.682 252.792 242.106 252.082 242.324L242.726 245.229C242.372 245.339 242 245.395 241.625 245.395Z" fill="#2F2E41"/>
<path d="M208.965 118.123C199.781 118.123 189.542 116.515 186.39 109.88L186.317 109.728L186.415 109.586C188.903 106.003 192.191 99.8898 190.424 98.7423C186.943 96.4825 185.253 92.765 185.403 87.6927C185.729 76.6818 194.275 66.9058 206.668 63.3664H206.668C210.128 62.3944 213.648 61.5986 217.212 60.983C219.811 60.5227 222.493 60.5734 225.066 61.1313C227.639 61.6891 230.04 62.7405 232.095 64.2097C234.177 65.6885 235.859 67.5537 237.022 69.6712C238.184 71.7888 238.798 74.1062 238.819 76.4568C238.949 88.2238 236.886 104.613 226.317 115.865C225.822 116.387 225.133 116.739 224.371 116.858C219.286 117.666 214.132 118.089 208.965 118.123Z" fill="#CCCCCC"/>
<path d="M205.549 117.682C206.048 116.108 207.236 114.771 208.852 113.961C210.469 113.151 212.384 112.934 214.182 113.357C214.549 113.447 214.907 113.564 215.252 113.705L227.07 104.263L235.289 109.124L218.389 122.254C217.625 123.462 216.424 124.411 214.976 124.951C213.527 125.49 211.915 125.589 210.395 125.231C209.51 125.018 208.681 124.653 207.958 124.158C207.234 123.662 206.629 123.046 206.178 122.344C205.728 121.642 205.44 120.869 205.332 120.068C205.224 119.268 205.297 118.457 205.549 117.682V117.682Z" fill="#FFB8B8"/>
<path d="M225.198 117.802C224.431 117.803 223.688 117.57 223.095 117.143L218.434 113.8C218.046 113.521 217.734 113.169 217.523 112.769C217.311 112.37 217.205 111.934 217.213 111.493C217.221 111.053 217.342 110.62 217.567 110.226C217.793 109.833 218.117 109.489 218.515 109.221L238.062 96.0591C238.293 95.9024 238.445 95.6717 238.485 95.4172C238.524 95.1627 238.447 94.9048 238.271 94.6996L226.207 80.6966C224.805 79.0751 224.102 77.0705 224.222 75.0377C224.342 73.0048 225.277 71.0748 226.863 69.5893V69.5893C228.532 68.0063 230.818 67.0321 233.268 66.8601C235.717 66.6882 238.151 67.3309 240.086 68.6608L240.162 68.7315L252.761 84.5687C254.123 85.5065 255.22 86.708 255.966 88.0795C256.712 89.451 257.086 90.9553 257.061 92.475C257.035 93.9946 256.609 95.4885 255.817 96.8399C255.025 98.1912 253.888 99.3636 252.494 100.265L227.178 117.229C226.605 117.601 225.911 117.802 225.198 117.802Z" fill="#CCCCCC"/>
<path d="M199.571 37.0148V29.1059L215.654 22.9404L230.989 29.1059V37.0148C230.989 37.3591 230.833 37.6892 230.556 37.9326C230.279 38.1761 229.903 38.3128 229.511 38.3128H201.05C200.657 38.3128 200.281 38.1761 200.004 37.9326C199.727 37.6892 199.571 37.3591 199.571 37.0148Z" fill="#2F2E41"/>
<path d="M214.916 18.1071C212.551 11.4622 217.517 3.84687 224.859 1.21666C232.201 -1.41354 240.985 0.425053 247.18 4.77055C253.375 9.11605 257.218 15.6248 259.255 22.3529C261.292 29.081 261.678 36.0968 262.054 43.0506C271.075 44.5053 277.211 53.8983 274.086 61.4683C270.961 69.0383 259.395 72.7992 251.407 68.8425C243.42 64.8859 241.106 54.2499 246.871 47.9875C249.599 45.0244 251.123 41.3469 251.201 37.5376C251.279 33.7283 249.908 30.0049 247.304 26.9572C244.7 23.9094 241.012 21.7116 236.824 20.7116C232.637 19.7117 228.189 19.9669 224.185 21.4369C219.74 23.0691 214.161 18.8283 214.916 18.1071Z" fill="#2F2E41"/>
<path d="M113.559 65.6034C102.759 65.5411 92.094 63.4905 82.2531 59.5839C81.6673 59.3547 81.1701 58.9809 80.822 58.5079C80.474 58.035 80.2901 57.4834 80.2928 56.9204V33.2849C80.2937 32.5106 80.6445 31.7682 81.2682 31.2207C81.8918 30.6732 82.7374 30.3652 83.6194 30.3644H143.498C144.38 30.3653 145.226 30.6732 145.85 31.2207C146.473 31.7683 146.824 32.5106 146.825 33.2849V56.9204C146.828 57.4835 146.644 58.035 146.296 58.508C145.948 58.9809 145.45 59.3547 144.865 59.5839C135.024 63.4905 124.359 65.5411 113.559 65.6034V65.6034Z" fill="#6A040F"/>
<path d="M113.551 46.4558C113.107 46.4561 112.667 46.3785 112.258 46.2276L64.7747 28.6398C64.1623 28.413 63.6414 28.0304 63.2791 27.5413C62.9167 27.0522 62.7296 26.479 62.7418 25.8956C62.7539 25.3123 62.9649 24.7455 63.3474 24.2683C63.7299 23.7912 64.2664 23.4256 64.8878 23.2187L112.372 7.40384C113.137 7.14795 113.982 7.14952 114.746 7.40827L161.593 23.2231C162.211 23.4317 162.744 23.7974 163.124 24.2733C163.504 24.7493 163.713 25.314 163.725 25.8951C163.738 26.4761 163.552 27.0472 163.193 27.5352C162.833 28.0232 162.316 28.4059 161.707 28.6344L114.859 46.2219C114.445 46.3766 114 46.4561 113.551 46.4558V46.4558Z" fill="#6A040F"/>
<path d="M85.8371 61.1922C88.2867 61.1922 90.2726 59.4487 90.2726 57.2981C90.2726 55.1475 88.2867 53.4041 85.8371 53.4041C83.3874 53.4041 81.4016 55.1475 81.4016 57.2981C81.4016 59.4487 83.3874 61.1922 85.8371 61.1922Z" fill="#3F3D56"/>
<path opacity="0.2" d="M161.869 26.1379L115.021 43.7255C114.656 43.8626 114.263 43.9337 113.865 43.9345C113.468 43.9354 113.075 43.8659 112.709 43.7304L65.2255 26.1431C64.6292 25.9275 64.1317 25.5436 63.8116 25.052C63.6022 25.3708 63.4725 25.725 63.431 26.0911C63.3895 26.4573 63.4372 26.827 63.5709 27.1757C63.7046 27.5244 63.9213 27.8441 64.2066 28.1137C64.4919 28.3832 64.8392 28.5964 65.2255 28.7391L112.709 46.3264C113.075 46.462 113.468 46.5314 113.865 46.5306C114.263 46.5297 114.656 46.4586 115.021 46.3215L161.869 28.734C162.253 28.59 162.599 28.3762 162.882 28.1065C163.165 27.8368 163.38 27.5175 163.512 27.1695C163.645 26.8215 163.692 26.4529 163.65 26.0879C163.608 25.7229 163.478 25.3698 163.27 25.052C162.952 25.5396 162.459 25.9214 161.869 26.1379V26.1379Z" fill="black"/>
<path d="M86.2098 57.2829C86.4058 57.2829 86.5939 57.2145 86.7325 57.0928C86.8711 56.9711 86.949 56.806 86.949 56.6339V34.9172L111.33 27.1193C111.526 27.1219 111.716 27.056 111.856 26.9361C111.997 26.8162 112.078 26.6521 112.081 26.48C112.083 26.3079 112.008 26.1418 111.872 26.0182C111.735 25.8947 111.548 25.8239 111.352 25.8213L86.971 33.6192C86.7748 33.6153 86.5798 33.6463 86.3976 33.7105C86.2155 33.7746 86.0501 33.8706 85.9114 33.9925C85.7713 34.113 85.6601 34.2569 85.5844 34.4157C85.5086 34.5745 85.4699 34.7451 85.4705 34.9172V56.6339C85.4705 56.806 85.5484 56.9711 85.6871 57.0928C85.8257 57.2145 86.0137 57.2829 86.2098 57.2829V57.2829Z" fill="#3F3D56"/>
</g>
<defs>
<clipPath id="clip0_10_314">
<rect width="550" height="350" fill="white"/>
</clipPath>
</defs>
</svg>
